<svg width="232" height="36" viewBox="0 0 116 18" fill="none" xmlns="http://www.w3.org/2000/svg">
<path d="M48.88 7.192C48.624 6.72266 48.272 6.36533 47.824 6.12C47.376 5.87466 46.8533 5.752 46.256 5.752C45.5947 5.752 45.008 5.90133 44.496 6.2C43.984 6.49866 43.584 6.92533 43.296 7.48C43.008 8.03466 42.864 8.67466 42.864 9.4C42.864 10.1467 43.008 10.7973 43.296 11.352C43.5947 11.9067 44.0053 12.3333 44.528 12.632C45.0507 12.9307 45.6587 13.08 46.352 13.08C47.2053 13.08 47.904 12.856 48.448 12.408C48.992 11.9493 49.3493 11.3147 49.52 10.504H45.68V8.792H51.728V10.744C51.5787 11.5227 51.2587 12.2427 50.768 12.904C50.2773 13.5653 49.6427 14.0987 48.864 14.504C48.096 14.8987 47.232 15.096 46.272 15.096C45.1947 15.096 44.2187 14.856 43.344 14.376C42.48 13.8853 41.7973 13.208 41.296 12.344C40.8053 11.48 40.56 10.4987 40.56 9.4C40.56 8.30133 40.8053 7.32 41.296 6.456C41.7973 5.58133 42.48 4.904 43.344 4.424C44.2187 3.93333 45.1893 3.688 46.256 3.688C47.5147 3.688 48.608 3.99733 49.536 4.616C50.464 5.224 51.104 6.08266 51.456 7.192H48.88Z" fill="white"/>
<path d="M52.8092 10.536C52.8092 9.64 52.9852 8.84533 53.3372 8.152C53.6999 7.45866 54.1852 6.92533 54.7932 6.552C55.4119 6.17866 56.0999 5.992 56.8572 5.992C57.5186 5.992 58.0946 6.12533 58.5852 6.392C59.0866 6.65866 59.4866 6.99466 59.7852 7.4V6.136H62.0412V15H59.7852V13.704C59.4972 14.12 59.0972 14.4667 58.5852 14.744C58.0839 15.0107 57.5026 15.144 56.8412 15.144C56.0946 15.144 55.4119 14.952 54.7932 14.568C54.1852 14.184 53.6999 13.6453 53.3372 12.952C52.9852 12.248 52.8092 11.4427 52.8092 10.536ZM59.7852 10.568C59.7852 10.024 59.6786 9.56 59.4652 9.176C59.2519 8.78133 58.9639 8.48266 58.6012 8.28C58.2386 8.06666 57.8492 7.96 57.4332 7.96C57.0172 7.96 56.6332 8.06133 56.2812 8.264C55.9292 8.46666 55.6412 8.76533 55.4172 9.16C55.2039 9.544 55.0972 10.0027 55.0972 10.536C55.0972 11.0693 55.2039 11.5387 55.4172 11.944C55.6412 12.3387 55.9292 12.6427 56.2812 12.856C56.6439 13.0693 57.0279 13.176 57.4332 13.176C57.8492 13.176 58.2386 13.0747 58.6012 12.872C58.9639 12.6587 59.2519 12.36 59.4652 11.976C59.6786 11.5813 59.7852 11.112 59.7852 10.568Z" fill="white"/>
<path d="M75.237 6.008C76.325 6.008 77.1997 6.344 77.861 7.016C78.533 7.67733 78.869 8.60533 78.869 9.8V15H76.629V10.104C76.629 9.41066 76.453 8.88266 76.101 8.52C75.749 8.14666 75.269 7.96 74.661 7.96C74.053 7.96 73.5677 8.14666 73.205 8.52C72.853 8.88266 72.677 9.41066 72.677 10.104V15H70.437V10.104C70.437 9.41066 70.261 8.88266 69.909 8.52C69.557 8.14666 69.077 7.96 68.469 7.96C67.8503 7.96 67.3597 8.14666 66.997 8.52C66.645 8.88266 66.469 9.41066 66.469 10.104V15H64.229V6.136H66.469V7.208C66.757 6.83466 67.125 6.54133 67.573 6.328C68.0317 6.11466 68.533 6.008 69.077 6.008C69.7703 6.008 70.389 6.15733 70.933 6.456C71.477 6.744 71.8983 7.16 72.197 7.704C72.485 7.192 72.901 6.78133 73.445 6.472C73.9997 6.16266 74.597 6.008 75.237 6.008Z" fill="white"/>
<path d="M89.2346 10.376C89.2346 10.696 89.2133 10.984 89.1706 11.24H82.6906C82.744 11.88 82.968 12.3813 83.3626 12.744C83.7573 13.1067 84.2426 13.288 84.8186 13.288C85.6506 13.288 86.2426 12.9307 86.5946 12.216H89.0106C88.7546 13.0693 88.264 13.7733 87.5386 14.328C86.8133 14.872 85.9226 15.144 84.8666 15.144C84.0133 15.144 83.2453 14.9573 82.5626 14.584C81.8906 14.2 81.3626 13.6613 80.9786 12.968C80.6053 12.2747 80.4186 11.4747 80.4186 10.568C80.4186 9.65066 80.6053 8.84533 80.9786 8.152C81.352 7.45866 81.8746 6.92533 82.5466 6.552C83.2186 6.17866 83.992 5.992 84.8666 5.992C85.7093 5.992 86.4613 6.17333 87.1226 6.536C87.7946 6.89866 88.312 7.416 88.6746 8.088C89.048 8.74933 89.2346 9.512 89.2346 10.376ZM86.9146 9.736C86.904 9.16 86.696 8.70133 86.2906 8.36C85.8853 8.008 85.3893 7.832 84.8026 7.832C84.248 7.832 83.7786 8.00266 83.3946 8.344C83.0213 8.67466 82.792 9.13866 82.7066 9.736H86.9146Z" fill="white"/>
<path d="M102.458 7.192C102.202 6.72266 101.85 6.36533 101.402 6.12C100.954 5.87466 100.431 5.752 99.8341 5.752C99.1728 5.752 98.5861 5.90133 98.0741 6.2C97.5621 6.49866 97.1621 6.92533 96.8741 7.48C96.5861 8.03466 96.4421 8.67466 96.4421 9.4C96.4421 10.1467 96.5861 10.7973 96.8741 11.352C97.1728 11.9067 97.5835 12.3333 98.1061 12.632C98.6288 12.9307 99.2368 13.08 99.9301 13.08C100.783 13.08 101.482 12.856 102.026 12.408C102.57 11.9493 102.927 11.3147 103.098 10.504H99.2581V8.792H105.306V10.744C105.157 11.5227 104.837 12.2427 104.346 12.904C103.855 13.5653 103.221 14.0987 102.442 14.504C101.674 14.8987 100.81 15.096 99.8501 15.096C98.7728 15.096 97.7968 14.856 96.9221 14.376C96.0581 13.8853 95.3755 13.208 94.8741 12.344C94.3835 11.48 94.1381 10.4987 94.1381 9.4C94.1381 8.30133 94.3835 7.32 94.8741 6.456C95.3755 5.58133 96.0581 4.904 96.9221 4.424C97.7968 3.93333 98.7675 3.688 99.8341 3.688C101.093 3.688 102.186 3.99733 103.114 4.616C104.042 5.224 104.682 6.08266 105.034 7.192H102.458Z" fill="white"/>
<path d="M110.899 15.144C110.046 15.144 109.278 14.9573 108.595 14.584C107.913 14.2 107.374 13.6613 106.979 12.968C106.595 12.2747 106.403 11.4747 106.403 10.568C106.403 9.66133 106.601 8.86133 106.995 8.168C107.401 7.47466 107.95 6.94133 108.643 6.568C109.337 6.184 110.11 5.992 110.963 5.992C111.817 5.992 112.59 6.184 113.283 6.568C113.977 6.94133 114.521 7.47466 114.915 8.168C115.321 8.86133 115.523 9.66133 115.523 10.568C115.523 11.4747 115.315 12.2747 114.899 12.968C114.494 13.6613 113.939 14.2 113.235 14.584C112.542 14.9573 111.763 15.144 110.899 15.144ZM110.899 13.192C111.305 13.192 111.683 13.096 112.035 12.904C112.398 12.7013 112.686 12.4027 112.899 12.008C113.113 11.6133 113.219 11.1333 113.219 10.568C113.219 9.72533 112.995 9.08 112.547 8.632C112.11 8.17333 111.571 7.944 110.931 7.944C110.291 7.944 109.753 8.17333 109.315 8.632C108.889 9.08 108.675 9.72533 108.675 10.568C108.675 11.4107 108.883 12.0613 109.299 12.52C109.726 12.968 110.259 13.192 110.899 13.192Z" fill="white"/>
<path d="M13.32 5.288C12.936 4.584 12.408 4.048 11.736 3.68C11.064 3.312 10.28 3.128 9.384 3.128C8.392 3.128 7.512 3.352 6.744 3.8C5.976 4.248 5.376 4.888 4.944 5.72C4.512 6.552 4.296 7.512 4.296 8.6C4.296 9.72 4.512 10.696 4.944 11.528C5.392 12.36 6.008 13 6.792 13.448C7.576 13.896 8.488 14.12 9.528 14.12C10.808 14.12 11.856 13.784 12.672 13.112C13.488 12.424 14.024 11.472 14.28 10.256H8.52V7.688H17.592V10.616C17.368 11.784 16.888 12.864 16.152 13.856C15.416 14.848 14.464 15.648 13.296 16.256C12.144 16.848 10.848 17.144 9.408 17.144C7.792 17.144 6.328 16.784 5.016 16.064C3.72 15.328 2.696 14.312 1.944 13.016C1.208 11.72 0.839996 10.248 0.839996 8.6C0.839996 6.952 1.208 5.48 1.944 4.184C2.696 2.872 3.72 1.856 5.016 1.136C6.328 0.399998 7.784 0.0319977 9.384 0.0319977C11.272 0.0319977 12.912 0.495997 14.304 1.424C15.696 2.336 16.656 3.624 17.184 5.288H13.32Z" fill="#E92527"/>
<path d="M31.7419 5.288C31.3579 4.584 30.8299 4.048 30.1579 3.68C29.4859 3.312 28.7019 3.128 27.8059 3.128C26.8139 3.128 25.9339 3.352 25.1659 3.8C24.3979 4.248 23.7979 4.888 23.3659 5.72C22.9339 6.552 22.7179 7.512 22.7179 8.6C22.7179 9.72 22.9339 10.696 23.3659 11.528C23.8139 12.36 24.4299 13 25.2139 13.448C25.9979 13.896 26.9099 14.12 27.9499 14.12C29.2299 14.12 30.2779 13.784 31.0939 13.112C31.9099 12.424 32.4459 11.472 32.7019 10.256H26.9419V7.688H36.0139V10.616C35.7899 11.784 35.3099 12.864 34.5739 13.856C33.8379 14.848 32.8859 15.648 31.7179 16.256C30.5659 16.848 29.2699 17.144 27.8299 17.144C26.2139 17.144 24.7499 16.784 23.4379 16.064C22.1419 15.328 21.1179 14.312 20.3659 13.016C19.6299 11.72 19.2619 10.248 19.2619 8.6C19.2619 6.952 19.6299 5.48 20.3659 4.184C21.1179 2.872 22.1419 1.856 23.4379 1.136C24.7499 0.399998 26.2059 0.0319977 27.8059 0.0319977C29.6939 0.0319977 31.3339 0.495997 32.7259 1.424C34.1179 2.336 35.0779 3.624 35.6059 5.288H31.7419Z" fill="#E92527"/>
</svg>
